HIERARCHY
ROOT Pelvis
{
	OFFSET 0.000000 0.000000 0.000000
	CHANNELS 6 Xposition Yposition Zposition Zrotation Yrotation Xrotation 
	JOINT Left_hip
	{
		OFFSET 0.070241 -0.085575 -0.010474
		CHANNELS 3 Zrotation Yrotation Xrotation
		JOINT Left_knee
		{
			OFFSET 0.032125 -0.356873 -0.000555
			CHANNELS 3 Zrotation Yrotation Xrotation
			JOINT Left_ankle
			{
				OFFSET -0.010961 -0.370212 -0.042278
				CHANNELS 3 Zrotation Yrotation Xrotation
				JOINT Left_foot
				{
					OFFSET 0.023322 -0.052281 0.110104
					CHANNELS 3 Zrotation Yrotation Xrotation
					End Site
					{
						OFFSET 0.000000 0.000000 0.000000
					}
				}
			}
		}
	}
	JOINT Right_hip
	{
		OFFSET -0.068518 -0.084320 -0.007402
		CHANNELS 3 Zrotation Yrotation Xrotation
		JOINT Right_knee
		{
			OFFSET -0.037345 -0.364815 -0.003619
			CHANNELS 3 Zrotation Yrotation Xrotation
			JOINT Right_ankle
			{
				OFFSET 0.013394 -0.370006 -0.039954
				CHANNELS 3 Zrotation Yrotation Xrotation
				JOINT Right_foot
				{
					OFFSET -0.019600 -0.045455 0.113223
					CHANNELS 3 Zrotation Yrotation Xrotation
					End Site
					{
						OFFSET 0.000000 0.000000 0.000000
					}
				}
			}
		}
	}
	JOINT Spine1
	{
		OFFSET -0.002404 0.098129 -0.018169
		CHANNELS 3 Zrotation Yrotation Xrotation
		JOINT Spine2
		{
			OFFSET 0.003989 0.127209 -0.001742
			CHANNELS 3 Zrotation Yrotation Xrotation
			JOINT Spine3
			{
				OFFSET 0.001758 0.046641 0.023475
				CHANNELS 3 Zrotation Yrotation Xrotation
				JOINT Neck
				{
					OFFSET -0.003759 0.194901 -0.039982
					CHANNELS 3 Zrotation Yrotation Xrotation
					JOINT Head
					{
						OFFSET 0.003999 0.063756 0.047665
						CHANNELS 3 Zrotation Yrotation Xrotation
						End Site
						{
							OFFSET 0.000000 0.000000 0.000000
						}
					}
				}
				JOINT Left_collar
				{
					OFFSET 0.071816 0.109048 -0.028973
					CHANNELS 3 Zrotation Yrotation Xrotation
					JOINT Left_shoulder
					{
						OFFSET 0.084027 0.032269 -0.006525
						CHANNELS 3 Zrotation Yrotation Xrotation
						JOINT Left_elbow
						{
							OFFSET 0.243854 -0.013992 -0.025905
							CHANNELS 3 Zrotation Yrotation Xrotation
							JOINT Left_wrist
							{
								OFFSET 0.232156 0.008196 -0.000339
								CHANNELS 3 Zrotation Yrotation Xrotation
								JOINT Left_palm
								{
									OFFSET 0.075377 -0.009461 -0.012494
									CHANNELS 3 Zrotation Yrotation Xrotation
									End Site
									{
										OFFSET 0.000000 0.000000 0.000000
									}
								}
							}
						}
					}
				}
				JOINT Right_collar
				{
					OFFSET -0.073768 0.107001 -0.033755
					CHANNELS 3 Zrotation Yrotation Xrotation
					JOINT Right_shoulder
					{
						OFFSET -0.086837 0.032868 -0.009431
						CHANNELS 3 Zrotation Yrotation Xrotation
						JOINT Right_elbow
						{
							OFFSET -0.236446 -0.012544 -0.018747
							CHANNELS 3 Zrotation Yrotation Xrotation
							JOINT Right_wrist
							{
								OFFSET -0.236110 0.006124 -0.004327
								CHANNELS 3 Zrotation Yrotation Xrotation
								JOINT Right_palm
								{
									OFFSET -0.074800 -0.006875 -0.009610
									CHANNELS 3 Zrotation Yrotation Xrotation
									End Site
									{
										OFFSET 0.000000 0.000000 0.000000
									}
								}
							}
						}
					}
				}
			}
		}
	}
}
MOTION
Frames: 16
Frame Time: 0.100000
0.501382 0.157830 -0.082171 174.336420 50.524339 -29.373112 26.104050 25.221632 -14.954914 -1.996334 12.948768 28.160169 -16.638104 15.810405 12.863355 26.719270 3.521675 -23.468971 -8.406501 -9.758039 -3.668124 0.846233 -7.661679 56.217967 1.045114 -11.156960 -38.435139 -4.178085 3.956244 2.929066 9.991782 5.797954 6.726238 0.140157 3.483152 0.731963 0.428921 9.104599 -3.638926 6.773165 30.021702 9.232814 -9.906646 12.435077 4.034792 -3.066259 -6.246873 -13.024419 -16.184108 -24.830686 -4.867132 94.066251 -72.649944 -63.974700 43.519207 -22.619667 2.219497 -20.155983 -10.450791 -2.154637 12.317810 36.355940 3.572741 3.142260 58.738749 -12.746529 -18.134555 69.823070 4.748976 -41.501087 27.099775 7.322646 10.497351 6.674692 2.467185 
0.502511 0.158102 -0.081344 173.382265 51.995361 -31.027109 25.076166 23.331559 -15.334862 -2.096881 10.727719 27.970328 -16.142389 15.947386 12.621150 26.488144 3.913084 -23.279765 -8.125628 -9.958490 -2.382015 0.565372 -7.888255 56.090372 2.049824 -11.775811 -38.462860 -6.181405 3.902884 2.375441 9.143193 6.325813 7.198194 -0.541360 3.304427 1.001390 0.541484 9.103397 -2.594677 5.117994 29.988360 9.017308 -8.750918 12.175858 1.357085 -1.618787 -7.303964 -13.656832 -16.123133 -26.855242 -6.095003 97.313101 -71.531070 -66.989267 42.889758 -22.598338 2.426328 -20.750678 -10.299089 -2.629908 9.945288 35.752724 2.014033 4.668746 56.167920 -13.199926 -29.734152 72.946491 -6.615624 -40.920007 26.704277 5.715378 11.784227 6.831468 2.319903 
0.506896 0.159222 -0.080138 171.323922 54.099656 -33.595810 23.871796 20.903217 -16.394441 -2.621134 7.410813 27.623906 -16.086217 15.683519 12.636154 26.672942 4.362956 -23.187972 -7.138571 -10.230131 -1.230437 0.178959 -8.448200 56.043471 3.131681 -12.979127 -38.588198 -8.589535 3.857198 1.772706 8.062382 6.750428 8.632892 -1.515028 3.176467 0.869281 0.616775 8.901505 -1.111465 2.675344 29.968519 8.874806 -7.975039 11.924505 -2.003095 1.204123 -6.907929 -14.797322 -15.898053 -29.723731 -7.511451 105.925529 -70.266720 -74.533023 43.043337 -22.482384 2.115983 -21.146168 -9.838518 -2.990523 5.693824 33.433758 -0.873892 5.535065 53.472623 -14.371207 -50.101074 74.989218 -26.581638 -41.309637 25.751308 2.218036 13.061869 6.957501 2.574081 
0.512392 0.159359 -0.078054 169.260150 54.949936 -35.714252 23.969291 20.071787 -16.856156 -2.657220 5.908043 27.089415 -16.291630 15.950752 12.764075 27.261794 4.424834 -23.362223 -6.015491 -10.455670 -0.661075 0.300801 -9.047349 55.758453 3.895784 -13.555757 -38.635745 -10.350139 3.976231 1.372830 7.246751 7.057842 9.974794 -2.318734 3.405219 0.686037 0.556531 8.863582 0.055226 1.555168 30.148885 8.899566 -7.832479 11.287297 -3.691149 3.826002 -5.309045 -15.753409 -15.939041 -31.876221 -8.796979 109.833294 -68.827162 -78.232641 42.255693 -22.153611 1.691446 -20.975374 -9.288706 -3.355663 2.357117 31.559554 -2.821838 5.140554 52.888855 -16.083146 -61.541092 74.199830 -37.821294 -41.231006 24.732272 -0.109733 13.175765 6.765166 3.018241 
0.517020 0.156670 -0.076030 167.296043 54.955504 -37.198541 24.738073 20.305486 -16.798538 -2.462337 5.578835 25.807254 -16.507183 15.997215 13.254263 27.398388 4.524604 -23.462763 -4.770214 -10.704397 -0.312060 0.582596 -9.635346 54.645352 4.084186 -13.638912 -38.301144 -10.764493 3.827002 1.466686 6.533437 7.227719 10.588241 -2.565196 3.569612 0.414593 0.572929 8.786768 0.715414 1.828750 30.557231 9.006143 -7.953791 10.608177 -3.176310 5.235380 -4.223536 -16.212089 -16.055688 -33.025205 -9.425572 110.114846 -68.143719 -77.920848 43.244109 -21.946542 2.067581 -20.315060 -8.760450 -3.296911 1.281510 30.790760 -3.548834 5.853397 53.585872 -16.092333 -66.778731 74.115283 -42.207411 -42.882855 24.353855 -0.889174 12.723898 6.364635 3.608872 
0.519150 0.152785 -0.075549 166.406078 54.728461 -37.660870 24.874063 20.013219 -16.491340 -2.203175 5.208984 24.363329 -16.329448 16.288859 13.385155 27.393625 4.502037 -23.200989 -3.873870 -10.659729 -0.177060 0.689663 -9.804871 53.449532 4.410114 -13.810744 -37.755398 -11.189877 3.873563 1.353523 5.693717 7.446066 10.898811 -2.702673 3.653498 0.321141 0.649691 8.742432 1.108321 1.973774 30.423842 8.834565 -7.409076 10.016827 -3.079323 6.213206 -3.806913 -16.346256 -15.762380 -33.323848 -9.933004 108.743179 -67.947790 -76.539843 42.802207 -21.739702 2.551349 -19.801215 -8.377890 -3.293088 0.806650 30.765639 -3.885973 6.168666 54.245223 -16.101723 -69.825482 74.419539 -44.710185 -42.827609 24.190681 -0.874357 12.266024 5.960116 4.032659 
0.519317 0.149357 -0.077202 165.538262 54.628926 -38.279459 24.699838 19.388673 -16.276694 -1.963676 4.430600 23.202816 -16.249476 16.416203 13.592096 27.540640 4.614710 -22.960740 -3.301361 -10.680265 0.243540 0.775153 -9.924229 52.233397 4.685963 -13.846095 -37.161304 -11.795980 3.683643 1.081577 5.344769 7.541837 11.437410 -2.874568 3.723022 0.415073 0.714441 8.706664 1.534791 2.037645 30.123047 9.040285 -7.100562 9.596496 -4.011372 7.129532 -3.046082 -16.623452 -16.002409 -33.574828 -10.381048 109.816295 -67.121218 -77.217649 42.334379 -21.550782 3.180185 -19.518433 -8.078622 -3.325432 -0.428887 30.254166 -4.573535 6.074528 54.566899 -16.551865 -73.833322 74.461249 -48.268696 -42.107632 23.988743 -0.912930 11.960151 5.743525 4.245095 
0.517910 0.145762 -0.079808 164.935832 54.818240 -38.570412 24.103664 18.508510 -16.179869 -1.831731 3.520373 22.100025 -16.062482 16.294602 13.529626 27.546956 4.743966 -22.625572 -2.960278 -10.536496 0.454884 0.626558 -10.048819 51.229008 5.106365 -13.848398 -36.497943 -12.550586 3.467419 0.814680 5.122408 7.516214 11.997129 -3.042030 3.770473 0.361407 0.716553 8.627607 2.155178 1.942530 30.438341 10.245318 -7.179899 9.976067 -4.819780 8.319942 -1.449432 -16.990307 -17.025563 -33.958651 -10.457411 112.076556 -65.809533 -78.968092 42.453517 -21.212652 2.555004 -19.272619 -7.542814 -3.160084 -2.060003 28.829288 -5.546713 7.071162 55.166160 -16.193672 -79.309279 74.073145 -53.510548 -42.152387 23.544375 -2.424851 11.738552 5.416242 4.622149 
0.516974 0.144985 -0.083023 164.952583 54.906231 -38.135564 23.345098 17.542984 -16.798654 -2.021781 2.329511 21.968832 -15.731807 16.305412 13.156718 27.412918 4.582624 -22.456920 -2.959054 -10.506888 -0.117395 0.600882 -9.825754 51.191747 5.906634 -13.898621 -36.195150 -13.892985 3.549724 0.157225 5.027550 7.570972 13.057190 -3.505675 3.962348 -0.160534 0.683362 8.784365 2.803009 1.161990 30.433784 10.309056 -6.985075 10.669721 -5.181898 9.220698 -0.355574 -17.394586 -17.367843 -33.881090 -10.677235 112.785297 -65.659361 -78.275178 43.010373 -21.323358 3.813375 -18.611558 -7.251538 -2.949213 -3.560523 27.744758 -6.213908 6.157729 55.281109 -17.499728 -81.285275 73.810027 -55.068124 -42.261982 23.678858 -2.267627 11.378190 5.321520 4.709883 
0.516660 0.145397 -0.085215 164.699867 54.570719 -37.569838 23.415448 17.777206 -17.784465 -2.086222 2.437826 22.311377 -15.747233 16.362811 13.281782 27.348850 4.425647 -22.751428 -2.657053 -10.438141 -1.174169 0.746646 -9.730042 51.417168 6.421320 -13.912657 -36.160309 -14.772021 3.856499 -0.119963 5.064438 7.492859 14.012925 -3.749591 4.111755 -1.192687 0.721582 8.911739 3.213692 0.943368 30.315578 9.664492 -6.715447 10.814336 -4.870718 9.775374 0.458045 -17.489275 -17.754015 -33.302746 -10.540075 112.419212 -66.150341 -77.483721 42.902668 -21.115150 3.964728 -18.197428 -7.142003 -2.752759 -4.189741 27.451289 -6.372117 5.276361 55.770778 -18.446560 -79.199721 74.029194 -52.730999 -42.450879 23.640781 -1.929742 10.922312 5.211263 4.762622 
0.515664 0.145109 -0.086050 164.573107 54.271303 -36.868167 23.536466 18.160801 -18.526193 -2.090424 2.853688 22.454305 -15.793470 16.433755 13.539532 27.306629 4.296079 -22.961863 -2.488273 -10.411771 -2.012544 0.915453 -9.741514 51.417889 6.804048 -13.807024 -36.072286 -15.531983 4.119029 -0.406571 5.058226 7.389444 14.683872 -4.001879 4.140366 -1.993348 0.720022 9.001494 3.456165 0.610614 30.053278 8.855798 -6.443253 10.745696 -4.865100 9.833100 0.760624 -17.486444 -17.892854 -32.321831 -10.584152 111.913548 -65.858633 -77.150208 43.117039 -20.812700 3.503432 -17.956909 -7.022682 -2.521060 -4.326581 27.811346 -6.409823 5.215346 56.506885 -18.704227 -77.844609 74.161642 -51.458438 -42.692164 23.584644 -2.045449 10.456250 4.989646 4.952276 
0.513431 0.144111 -0.086469 164.673719 53.907472 -36.205648 23.606171 18.306438 -18.887669 -2.019346 3.162904 22.561482 -15.820944 16.532698 13.646538 27.455228 4.195541 -22.934347 -2.346788 -10.260924 -2.535720 0.909361 -9.632799 51.333320 6.875541 -13.724432 -35.863016 -15.750361 4.253574 -0.539074 5.079947 7.373707 15.057399 -4.135112 4.284826 -2.100032 0.689486 9.162468 3.374117 0.719385 29.898784 8.680282 -6.367917 10.793726 -4.823607 9.647358 1.129682 -17.456939 -18.225696 -31.603417 -10.498900 111.731765 -65.407845 -77.118386 42.374275 -20.469399 3.670267 -17.863807 -7.069090 -2.515225 -4.259363 28.251583 -6.200891 3.951317 57.524323 -19.848617 -74.820461 73.728766 -48.597431 -41.925559 23.429557 -1.457231 10.073001 4.923269 4.967246 
0.510436 0.142666 -0.086881 164.811465 53.446463 -35.757668 23.807308 18.597449 -18.923949 -1.978942 3.462596 22.744976 -15.965973 16.657829 13.456622 27.796353 3.983098 -22.902336 -2.248088 -10.112039 -2.595053 0.942421 -9.443593 50.973816 6.866097 -13.612017 -35.666252 -15.824764 4.343329 -0.686952 5.186233 7.207639 15.385426 -4.226999 4.357799 -2.067533 0.653114 9.218754 3.450419 0.922195 30.088553 8.894087 -6.711694 11.327524 -5.406784 9.538004 2.158112 -17.201090 -18.729592 -30.180230 -10.525433 113.374587 -64.461566 -79.144380 42.192867 -19.835401 2.824513 -17.892624 -6.947423 -2.435449 -4.605398 28.386202 -6.088396 2.059142 58.954522 -21.642959 -71.291914 73.004589 -45.728845 -41.528789 22.957568 -2.002794 9.580903 4.611691 5.314830 
0.507202 0.141611 -0.087930 165.038207 52.942818 -35.087268 23.882360 18.732745 -19.128704 -1.905725 3.731393 22.943503 -16.032574 16.754218 13.553631 28.030911 3.888156 -22.936910 -2.256274 -9.951240 -2.890729 0.965445 -9.308713 50.745945 6.870457 -13.393905 -35.481208 -15.943981 4.345859 -0.866720 5.295237 7.096717 15.628407 -4.373506 4.479423 -2.227124 0.615228 9.329715 3.458779 1.238968 30.506250 8.838896 -6.871388 12.179086 -5.768857 9.122183 3.104495 -17.062038 -19.292936 -28.586345 -10.372376 114.850729 -63.503763 -80.804333 41.723495 -19.439621 2.242507 -17.948835 -6.913798 -2.255487 -4.677773 28.329573 -5.878408 0.323642 59.884438 -23.150225 -70.606375 72.967092 -45.212869 -40.748586 22.923183 -1.748031 9.225328 4.442904 5.468839 
0.503652 0.140739 -0.089037 164.966758 52.765015 -34.761697 23.797904 18.616193 -19.472410 -1.856773 3.752357 23.222424 -16.012200 16.794599 13.582393 28.131821 3.873568 -22.937632 -2.253595 -9.850605 -3.017864 0.945115 -9.243308 50.471518 6.871836 -13.334823 -35.328744 -16.050725 4.301539 -0.972696 5.392681 7.113465 15.789005 -4.431364 4.573782 -2.229188 0.630372 9.402380 3.376457 1.508631 30.451295 8.468490 -6.772564 12.482796 -5.925331 8.642844 3.406591 -17.003718 -20.076942 -27.881907 -10.055173 115.396648 -62.875219 -81.290813 41.810074 -19.323165 2.157946 -17.951708 -6.918714 -2.105702 -4.609637 28.328684 -5.720554 -0.176509 60.077864 -23.616554 -71.017145 73.017483 -45.678181 -40.697930 23.040781 -1.595790 9.086789 4.442390 5.541580 
0.500021 0.140225 -0.089402 164.654948 52.993754 -34.848803 23.629800 18.373772 -19.789612 -1.933292 3.585990 23.522177 -15.934058 16.642131 13.577279 27.952805 4.003409 -22.947380 -2.274041 -9.879000 -2.875206 0.852892 -9.246153 50.275744 6.922948 -13.444458 -35.266300 -16.188056 4.234640 -1.036392 5.303016 7.146695 15.916892 -4.430540 4.486725 -2.324821 0.678608 9.336021 3.449027 1.682159 30.161835 8.271159 -6.507296 12.443213 -5.931992 8.608075 3.365749 -17.010615 -20.582250 -27.981575 -9.957834 115.786978 -62.473143 -81.536898 41.803361 -19.140268 2.314745 -17.996351 -6.918962 -2.003005 -4.707820 28.205345 -5.808691 0.570528 60.076575 -23.079731 -71.901313 73.109338 -46.246178 -40.596076 22.925146 -1.331285 9.122341 4.547423 5.531028 
